<?xml version="1.0" encoding="utf-8"?>
<!-- Generator: Adobe Illustrator 16.0.0, SVG Export Plug-In . SVG Version: 6.00 Build 0)  -->
<!DOCTYPE svg PUBLIC "-//W3C//DTD SVG 1.1//EN" "http://www.w3.org/Graphics/SVG/1.1/DTD/svg11.dtd">
<svg version="1.1" id="Layer_1" xmlns="http://www.w3.org/2000/svg" xmlns:xlink="http://www.w3.org/1999/xlink" x="0px" y="0px"
	 width="334.875px" height="220.688px" viewBox="0 0 334.875 220.688" enable-background="new 0 0 334.875 220.688"
	 xml:space="preserve">
<path opacity="0.6" fill="#DD3366" enable-background="new    " d="M76.503,30.056c-3.694,0-6.688,2.995-6.688,6.688
	c0,3.689,2.994,6.688,6.688,6.688s6.688-2.994,6.688-6.688C83.191,33.05,80.197,30.056,76.503,30.056z M80.182,38.75H73.16
	c-0.925,0-1.673-0.577-1.673-1.5s0.748-1.5,1.673-1.5h7.022c0.924,0,1.672,0.577,1.672,1.5S81.105,38.75,80.182,38.75z"/>
<g>
	<path opacity="0.6" fill="#FFFFFF" enable-background="new    " d="M50.114,43.75h-6.496c-2.646,0-5.119-2.379-5.119-5.026V36.05
		c0-2.528,2.379-4.3,5.119-4.3h1.362c0.528,0,0.956,0.473,0.956,1c0,0.522-0.428,1-0.956,1h-1.362c-1.471,0-3.119,0.646-3.119,2.3
		v2.674c0,1.571,1.547,3.026,3.119,3.026h6.496c1.581,0,2.866-1.271,2.866-2.854c0-0.522,0.427-0.942,0.956-0.942
		c0.527,0,0.955,0.461,0.955,0.983C54.89,41.574,52.748,43.75,50.114,43.75z"/>
	<path fill="#FFFFFF" d="M53.294,34.75H51.5v-2.778c0-0.527-0.473-0.955-1.001-0.955c-0.527,0-0.999,0.428-0.999,0.955v2.778h-2.594
		c-0.527,0-0.956,0.473-0.956,1c0,0.522,0.428,1,0.956,1H49.5v1.604c0,0.527,0.472,0.956,0.999,0.956
		c0.528,0,1.001-0.428,1.001-0.956V36.75h1.794c0.527,0,0.956-0.478,0.956-1C54.25,35.223,53.821,34.75,53.294,34.75z"/>
</g>
<path fill="#FFFFFF" d="M46.5,56.836c-3.267,0-5.915,2.646-5.915,5.914c0,3.268,2.648,5.914,5.915,5.914
	c3.266,0,5.914-2.646,5.914-5.914C52.414,59.484,49.766,56.836,46.5,56.836z M46.5,58.807c0.878,0,1.688,0.293,2.345,0.781
	l-6.079,4.42c-0.133-0.396-0.209-0.816-0.209-1.258C42.557,60.576,44.326,58.807,46.5,58.807z M46.5,66.693
	c-1.022,0-1.952-0.396-2.653-1.03l6.24-4.537c0.227,0.497,0.356,1.048,0.356,1.629C50.443,64.924,48.674,66.693,46.5,66.693z"/>
<path fill="#FFFFFF" d="M10.25,0c-4.963,0-9,4.037-9,9s4.037,9,9,9s9-4.037,9-9S15.213,0,10.25,0z M11.098,14.914
	c-0.306,0.168-0.683,0.254-1.132,0.254c-0.449,0-0.826-0.084-1.132-0.254c-0.117-0.201-0.174-0.501-0.174-0.902
	c0-0.4,0.059-0.702,0.174-0.903c0.274-0.168,0.651-0.253,1.132-0.253c0.479,0,0.857,0.084,1.132,0.253
	c0.116,0.201,0.174,0.502,0.174,0.903S11.214,14.713,11.098,14.914z M11.953,9.88l-0.966,0.506l-0.158,1.267
	c-0.243,0.085-0.536,0.132-0.878,0.132c-0.342,0-0.641-0.047-0.895-0.132L8.93,9.294l0.19-0.237l0.855-0.396
	c1.044-0.479,1.566-1.023,1.566-1.646c0-0.337-0.111-0.604-0.332-0.799c-0.222-0.195-0.57-0.292-1.045-0.292
	s-1.06,0.184-1.756,0.553C8.197,6.309,8.006,6.06,7.839,5.733C7.669,5.41,7.58,5.095,7.569,4.799
	c1.002-0.601,2.045-0.902,3.126-0.902c1.082,0,1.905,0.265,2.469,0.783c0.565,0.523,0.848,1.212,0.848,2.066
	C14.011,8.106,13.325,9.151,11.953,9.88z"/>
<g id="settings">
	<path fill="#FFFFFF" d="M38.05,9.309c0.003-0.091,0.009-0.137,0.009-0.229c0-0.812-0.093-1.563-0.286-2.337l-2.299,0.665
		C35.21,6.346,34.71,5.39,34.036,4.61l1.739-1.747c-0.567-0.653-1.216-1.219-1.934-1.675l-1.2,2.223
		c-0.859-0.541-1.848-0.863-2.906-0.896l-0.082-2.509c-0.112-0.005,0.114,0,0,0l0,0c-0.834,0-1.763,0.104-2.557,0.366l0.739,2.396
		c-0.995,0.312-1.886,0.885-2.602,1.65l-1.672-1.824c-0.592,0.63-1.09,1.354-1.489,2.141l2.083,1.227
		c-0.466,0.922-1.292,1.977-1.301,3.101L20.059,9.04v0.09c0,0.868,0.602,1.729,0.825,2.562l2.475-0.795
		c0.284,1.107,0.962,2.104,1.689,2.896l-1.628,1.732c0.58,0.646,1.252,1.193,1.978,1.636l1.161-2.233
		c0.848,0.507,1.826,0.802,2.858,0.824l-0.04,2.489c0.057,0.003,0.116,0.035,0.172,0.035c0.777,0,1.548-0.094,2.292-0.312
		l-0.638-2.455c0.979-0.295,1.859-0.843,2.575-1.58l1.64,1.86c0.603-0.619,1.118-1.328,1.529-2.106l-2.064-1.271
		c0.508-0.958,0.803-2.065,0.807-3.251L38.05,9.309z M29.55,12.742c-1.847,0-3.35-1.622-3.35-3.616s1.503-3.617,3.35-3.617
		c1.847,0,3.35,1.623,3.35,3.617S31.397,12.742,29.55,12.742z"/>
</g>
<g>
	<polygon fill="#8CC63F" points="12.5,49.871 5.439,42.811 7.561,40.689 12.5,45.629 20.939,37.189 23.061,39.311 	"/>
</g>
<polygon fill="#FF0000" points="22.561,58.811 20.439,56.689 14,63.129 7.561,56.689 5.439,58.811 11.879,65.25 5.439,71.689 
	7.561,73.811 14,67.371 20.439,73.811 22.561,71.689 16.121,65.25 "/>
<path fill="#9FABCE" d="M6.5,25.75c-1.657,0-3,1.343-3,3s1.343,3,3,3s3-1.343,3-3S8.157,25.75,6.5,25.75z M16.5,25.75
	c-1.657,0-3,1.343-3,3s1.343,3,3,3s3-1.343,3-3S18.157,25.75,16.5,25.75z M26.5,25.75c-1.657,0-3,1.343-3,3s1.343,3,3,3s3-1.343,3-3
	S28.157,25.75,26.5,25.75z"/>
<g>
	<path fill="#FFFFFF" d="M77.875,51.375h-11c-1.657,0-3,1.344-3,3v6c0,1.656,1.343,3,3,3h2v4.729l3.996-4.729h5.004
		c1.656,0,3-1.344,3-3v-6C80.875,52.719,79.531,51.375,77.875,51.375z"/>
</g>
<path fill="#FFFFFF" d="M100.451,37.964c-5.118,0-9.267,4.146-9.267,9.267s4.149,9.271,9.267,9.271c5.118,0,9.267-4.149,9.267-9.271
	C109.718,42.115,105.569,37.964,100.451,37.964z M102.865,52.247c-0.299,0-0.524-0.07-0.679-0.211
	c-0.154-0.145-0.292-0.393-0.413-0.741l-0.42-1.231c-0.112-0.299-0.231-0.5-0.357-0.603c-0.126-0.104-0.295-0.153-0.51-0.153
	l-0.462,0.02v2.812c-0.29,0.057-0.625,0.084-1.008,0.084c-0.383,0-0.728-0.027-1.036-0.084V41.93l0.098-0.098h0.812
	c0.411,0,0.702,0.096,0.875,0.287c0.173,0.188,0.259,0.516,0.259,0.973V47.6h0.252c0.168,0,0.298-0.084,0.392-0.252l0.798-1.47
	c0.252-0.513,0.644-0.771,1.176-0.771c0.271,0,0.658,0.015,1.162,0.028l0.084,0.112l-1.135,2.128
	c-0.178,0.327-0.41,0.588-0.699,0.784c0.56,0.205,0.956,0.606,1.189,1.218l0.35,1.036c0.15,0.396,0.269,0.676,0.357,0.826
	c0.089,0.146,0.193,0.266,0.314,0.35C103.891,52.027,103.424,52.247,102.865,52.247z"/>
<path fill="#FFFFFF" d="M123.451,42.964c-5.118,0-9.267,4.146-9.267,9.267s4.149,9.271,9.267,9.271c5.118,0,9.267-4.149,9.267-9.271
	C132.718,47.115,128.569,42.964,123.451,42.964z M126.427,51.269l-1.92-0.032v3.824c0,0.502,0.234,0.752,0.703,0.752h0.929
	c0.128,0.396,0.191,0.729,0.191,1.023c0,0.299-0.021,0.514-0.063,0.641c-0.769,0.106-1.473,0.159-2.112,0.159
	c-1.312,0-1.968-0.714-1.968-2.144v-4.24l-1.248,0.016c-0.064-0.229-0.096-0.517-0.096-0.848c0-0.33,0.031-0.613,0.096-0.848
	l1.248,0.016V48.61c0-0.528,0.096-0.902,0.288-1.115c0.191-0.218,0.522-0.32,0.992-0.32h0.928l0.112,0.112v2.315l1.92-0.026
	c0.063,0.283,0.096,0.566,0.096,0.848S126.491,50.981,126.427,51.269z"/>
<g>
	<g>
		<circle fill="#A8C6CC" cx="150.118" cy="50.994" r="11.583"/>
	</g>
</g>
<g>
	<path opacity="0.5" fill="#FFFFFF" enable-background="new    " d="M27.081,80.141c1.313,0,1.794,0.438,1.794,1.75v11.117
		c0,1.312-0.26,2.367-1.574,2.367H8.242c-1.313,0-2.367-1.06-2.367-2.367V81.891c0-1.312,1.054-1.516,2.367-1.516h18.633
		 M27.301,78.375H8.242c-2.192,0-4.367,1.317-4.367,3.516v11.117c0,2.192,2.175,4.367,4.367,4.367h19.059
		c2.193,0,3.574-2.175,3.574-4.367V81.891C30.875,79.697,29.494,78.375,27.301,78.375L27.301,78.375z"/>
	<polygon fill="#FFFFFF" points="13.875,82.975 21.915,87.616 13.875,92.258 	"/>
</g>
<path opacity="0.5" fill="#FFFFFF" enable-background="new    " d="M43.67,91.102c-0.331,0.328-1.41,0.277-2.45,0.273l-2.259-0.002
	c-1.704,0-3.086-1.392-3.086-3.091v-1.818c0-1.704,1.382-3.104,3.086-3.104l2.259-0.014c1.043,0,2.119-0.031,2.45,0.297
	c0.162,0.162,0.195,0.729,0.195,0.729h2c0-1-0.264-1.627-0.785-2.146c-0.92-0.916-2.351-0.854-3.871-0.854h-2.254
	c-2.807,0-5.081,2.276-5.081,5.089v1.812c0,2.812,2.274,5.099,5.082,5.099h2.253c0.137,0,0.272,0,0.407,0
	c1.364,0,2.626-0.021,3.463-0.854c0.521-0.521,0.785-1.146,0.785-2.146h-2C43.865,90.375,43.832,90.939,43.67,91.102z
	 M54.779,81.361l-2.258-0.014c-1.521-0.008-2.951-0.036-3.871,0.88c-0.52,0.521-0.784,1.147-0.784,2.147h2
	c0,0,0.034-0.565,0.195-0.729c0.331-0.33,1.406-0.271,2.45-0.271h2.264c1.704,0,3.101,1.385,3.101,3.089v1.818
	c0,1.698-1.391,3.102-3.096,3.102l-2.268,0.014c-1.042,0.004-2.119,0.033-2.45-0.295c-0.161-0.162-0.195-0.728-0.195-0.728h-2
	c0,1,0.265,1.625,0.784,2.144c0.838,0.834,2.1,0.856,3.464,0.856c0.135,0,0.271,0,0.407,0h2.254c2.808,0,5.101-2.286,5.101-5.093
	v-1.818C59.875,83.657,57.586,81.361,54.779,81.361z"/>
<rect x="39.875" y="86.375" fill="#9FABCE" width="14" height="2"/>
<g>
	<path fill="#657C8D" d="M268.057,53.415c-0.738-0.422-3.228-0.072-3.49-1.34c-0.266-1.271,0.908-2.121,1.021-2.761
		c0.104-0.633,0.458-4.812-2.788-4.812c-3.241,0-2.882,4.182-2.771,4.812c0.104,0.64,1.289,1.488,1.021,2.761
		c-0.27,1.268-2.753,0.917-3.485,1.34c-0.729,0.422-1.229,1.855-1.229,1.855h12.961C269.283,55.275,268.796,53.837,268.057,53.415z"
		/>
</g>
<g>
	<path fill="#A8C6CC" d="M249.055,53.415c-0.738-0.422-3.228-0.072-3.49-1.34c-0.266-1.271,0.908-2.121,1.021-2.761
		c0.104-0.633,0.458-4.812-2.788-4.812c-3.245,0-2.882,4.182-2.771,4.812c0.104,0.64,1.289,1.488,1.021,2.761
		c-0.271,1.268-2.753,0.917-3.489,1.34c-0.729,0.422-1.229,1.855-1.229,1.855h12.963C250.281,55.275,249.794,53.837,249.055,53.415z
		"/>
</g>
<g>
	<path fill="#F7E470" d="M228.053,51.415c-0.738-0.422-3.228-0.072-3.49-1.34c-0.266-1.271,0.908-2.121,1.021-2.761
		c0.104-0.633,0.458-4.812-2.788-4.812c-3.245,0-2.882,4.182-2.771,4.812c0.104,0.64,1.287,1.488,1.021,2.761
		c-0.271,1.268-2.753,0.917-3.489,1.34c-0.729,0.422-1.229,1.855-1.229,1.855h12.962C229.279,53.275,228.792,51.837,228.053,51.415z
		"/>
	<g>
		<polygon points="228.639,55.705 228.574,55.445 228.51,55.705 218.596,55.705 218.059,54.84 218.059,55.705 215.029,55.705 
			215.029,48.707 217.677,48.707 218.221,49.582 218.221,48.707 227.184,48.707 227.23,48.916 227.285,48.707 229.873,48.707 
			229.932,48.941 229.986,48.707 233.16,48.707 231.277,55.705 		"/>
		<path fill="#FFFFFF" d="M219.221,53.061h-0.014l-2.086-3.354h-1.092v4.998h1.027v-3.352h0.016l2.078,3.352h1.1v-4.998h-1.029
			V53.061L219.221,53.061z M222.314,52.557h2.422v-0.854h-2.422v-1.071h2.639v-0.924h-3.737v4.998h3.794v-0.924h-2.695V52.557
			L222.314,52.557z M230.777,49.707l-0.818,3.438h-0.016l-0.854-3.438h-1.028l-0.867,3.396h-0.014l-0.791-3.396h-1.101l1.321,4.998
			h1.113l0.832-3.401h0.014l0.85,3.401h1.092l1.346-4.998H230.777z"/>
	</g>
</g>
<g>
	<ellipse fill-opacity="0.5" cx="171.434" cy="47.921" rx="5.531" ry="1.873"/>
	<g>
		<path fill="#F7931E" d="M178.038,38.904c-0.58,0-1.049,0.454-1.049,1.017c0,0.132,0.026,0.259,0.073,0.374l-3.203,1.751
			l-1.819-3.726c0.38-0.146,0.649-0.514,0.649-0.934c0-0.559-0.479-1.012-1.051-1.012c-0.58,0-1.062,0.454-1.062,1.012
			c0,0.356,0.188,0.669,0.479,0.849l-1.854,3.811l-3.087-1.688c0.039-0.104,0.062-0.219,0.062-0.337
			c0-0.558-0.474-1.011-1.053-1.011c-0.577,0-1.05,0.453-1.05,1.011c0,0.562,0.473,1.018,1.05,1.018c0.114,0,0.229-0.021,0.33-0.057
			c0,0,1.38,4.152,1.979,6.292c3.688,2.962,8.184,0,8.184,0l2.012-6.418c0.125,0.048,0.267,0.077,0.397,0.077
			c0.576,0,1.052-0.453,1.052-1.013C179.087,39.357,178.616,38.904,178.038,38.904z"/>
	</g>
	<path fill="#FCEE21" d="M166.122,40.152l0.048,0.034c0-0.003,0-0.005,0.001-0.009l-0.022-0.011L166.122,40.152z M177.01,40.115
		L177.01,40.115c0,0.004,0.002,0.006,0.002,0.009l0.053-0.038L177.01,40.115z"/>
</g>
<g>
	<path fill-opacity="0.3" d="M206.504,46.301c0,0-1.818-3.102-7.302-3.159c0,0,0-0.001,0-0.002v0.001V43.14c0,0.001,0,0.002,0,0.002
		c-5.481,0.061-7.282,3.159-7.282,3.159s-0.271-0.863,0.309,4.165c0.528,4.586,6.086,7.377,6.979,7.833c0,0.045,0,0.068,0,0.068
		s-0.049-0.017,0-0.032c0.048,0.021,0,0.032,0,0.032s0-0.023,0-0.066c0.896-0.456,6.479-3.249,7.013-7.835
		C206.794,45.438,206.504,46.301,206.504,46.301z"/>
	<g>
		<g>
			<path fill="#788C8F" d="M205.831,44.457c0,0-1.843-3.489-6.688-3.55c0-0.002,0-0.002,0-0.009v0.007V40.9c0,0.007,0,0.007,0,0.009
				c-4.848,0.062-6.604,3.55-6.604,3.55s-0.271-0.976,0.264,4.682c0.479,5.152,5.538,8.291,6.354,8.804c0,0.056,0,0.076,0,0.076
				s-0.041-0.014,0-0.037c0.043,0.023,0,0.037,0,0.037s0-0.021,0-0.076c0.809-0.51,5.928-3.646,6.411-8.804
				C206.082,43.487,205.831,44.457,205.831,44.457z"/>
			
				<radialGradient id="SVGID_1_" cx="-820.1328" cy="4162.5557" r="18.5477" gradientTransform="matrix(0.8078 0 0 0.8806 861.3702 -3623.5154)" gradientUnits="userSpaceOnUse">
				<stop  offset="0" style="stop-color:#FFFFFF;stop-opacity:0.43"/>
				<stop  offset="1" style="stop-color:#231F20;stop-opacity:0"/>
			</radialGradient>
			<path fill="url(#SVGID_1_)" d="M205.831,44.457c0,0-1.843-3.489-6.688-3.55c0-0.002,0-0.002,0-0.009v0.007V40.9
				c0,0.007,0,0.007,0,0.009c-4.848,0.062-6.604,3.55-6.604,3.55s-0.271-0.976,0.264,4.682c0.479,5.152,5.538,8.291,6.354,8.804
				c0,0.056,0,0.076,0,0.076s-0.041-0.014,0-0.037c0.043,0.023,0,0.037,0,0.037s0-0.021,0-0.076c0.809-0.51,5.928-3.646,6.411-8.804
				C206.082,43.487,205.831,44.457,205.831,44.457z"/>
		</g>
		<path fill="#76898C" d="M205.1,45.007c0,0-0.303-3.102-5.957-3.158c0,0,0-0.001,0-0.002v0.001v-0.001c0,0.001,0,0.002,0,0.002
			c-4.039,0.061-5.877,3.158-5.877,3.158s-0.229-0.862,0.232,4.167c0.43,4.584,5.645,7.377,5.645,7.835c0,0.043,0,0.066,0,0.066
			s-0.039-0.016,0-0.032c0.039,0.021,0,0.032,0,0.032s0-0.023,0-0.066c0.812-0.456,5.277-3.249,5.705-7.835
			C205.316,44.146,205.1,45.007,205.1,45.007z"/>
		<g>
			<path fill="#FFFFFF" d="M199.143,40.902v0.002V40.902z"/>
			<path fill="#FFFFFF" d="M192.561,44.779c0,0,1.606-3.482,6.646-3.551c5.036,0.064,6.66,3.551,6.66,3.551s0.051-0.186,0.062,0.083
				c0.021-0.699-0.062-0.4-0.062-0.4s-1.624-3.489-6.66-3.55c-5.035,0.061-6.646,3.55-6.646,3.55s-0.074-0.289-0.054,0.369
				C192.518,44.61,192.561,44.779,192.561,44.779z M199.202,41.226C199.202,41.226,199.227,41.227,199.202,41.226
				C199.182,41.227,199.202,41.226,199.202,41.226z"/>
		</g>
		
			<radialGradient id="SVGID_2_" cx="-823.2617" cy="4163.7822" r="14.3547" gradientTransform="matrix(0.8078 0 0 0.8806 861.3702 -3623.5154)" gradientUnits="userSpaceOnUse">
			<stop  offset="0" style="stop-color:#FFFFFF"/>
			<stop  offset="1" style="stop-color:#FFFFFF;stop-opacity:0"/>
		</radialGradient>
		<path fill="url(#SVGID_2_)" d="M199.424,42.224c-0.26-0.028-0.527-0.048-0.812-0.051c-4.438,0.056-5.021,3.479-5.021,3.479
			s-0.221-1.507,0.251,3.521c0.288,3.086,2.118,5.035,3.706,6.332c0.554-0.513,1.353,1.453,1.792,0.756L199.424,42.224z"/>
	</g>
</g>
<g>
	<path fill="#FFFFFF" d="M81,81H64v-4h17V81z"/>
	<path fill="#FFFFFF" d="M78,87H64v-4h14V87z"/>
	<path fill="#FFFFFF" d="M74,89H64v4h10V89z"/>
</g>
<g>
	<g>
		<polygon fill="#FF0000" points="97.278,80.105 100.988,76.977 99.312,74.991 97.226,76.752 95.141,74.991 93.465,76.977 
			97.174,80.105 97.218,80.158 97.226,80.152 97.236,80.158 		"/>
		<polygon fill="#FF8282" points="95.141,75.727 97.226,77.486 99.312,75.727 100.626,77.282 100.988,76.977 99.312,74.991 
			97.226,76.752 95.141,74.991 93.465,76.977 93.827,77.282 		"/>
	</g>
	<rect x="89.875" y="78.154" fill="#4FCAFF" width="14.548" height="3.428"/>
	<rect x="89.875" y="78.154" fill="#94DFFF" width="14.548" height="0.854"/>
	<rect x="90.731" y="81.577" fill="#2390BF" width="12.836" height="9.414"/>
	<rect x="95.01" y="78.154" fill="#FF0000" width="3.423" height="12.842"/>
</g>
<g>
	<polyline fill="#7BB125" points="122.044,95.365 111.012,90.643 117.701,75.014 128.733,79.736 122.044,95.365 	"/>
	<polyline fill="#557A1A" points="127.159,83.414 116.128,78.691 117.701,75.014 128.733,79.736 127.159,83.414 	"/>
	<path fill="#557A1A" d="M121.942,87.979c-0.598,1.396-2.215,2.045-3.61,1.446c-1.396-0.598-2.044-2.214-1.446-3.61
		c0.598-1.396,2.214-2.043,3.61-1.438C121.892,84.968,122.54,86.583,121.942,87.979"/>
	<path fill="#3D5812" d="M119.413,89.646c-0.361,0-0.728-0.065-1.081-0.225c-1.396-0.598-2.044-2.214-1.446-3.607
		c0.447-1.043,1.462-1.668,2.529-1.668c0.361,0,0.728,0.069,1.081,0.228c1.396,0.598,2.044,2.214,1.446,3.604
		C121.496,89.021,120.48,89.646,119.413,89.646 M117.701,75.014l-6.689,15.629l11.032,4.729l6.689-15.637l-1.574,3.686
		l-11.031-4.729L117.701,75.014"/>
	<polyline fill="#2A3D0D" points="117.701,75.014 117.701,75.014 116.128,78.691 127.159,83.414 128.733,79.736 117.701,75.014 	"/>
	<path fill="#2A3D0D" d="M119.415,84.146c-1.067,0-2.083,0.625-2.529,1.668c-0.598,1.396,0.05,3.018,1.446,3.607
		c0.353,0.151,0.72,0.225,1.081,0.225c1.067,0,2.083-0.625,2.53-1.668c0.598-1.396-0.05-3.015-1.446-3.604
		C120.143,84.219,119.776,84.146,119.415,84.146"/>
	
		<rect x="117.889" y="74.682" transform="matrix(0.9193 0.3935 -0.3935 0.9193 42.7228 -42.0366)" fill="#7BB125" width="11.998" height="16.999"/>
	
		<rect x="120.42" y="75.221" transform="matrix(0.9193 0.3936 -0.3936 0.9193 40.5923 -43.5212)" fill="#557A1A" width="12" height="4.002"/>
	<circle fill="#557A1A" cx="123.414" cy="84.896" r="2.75"/>
</g>
<polygon fill="#A8C6CC" points="97.771,34.515 92.671,29.183 97.771,23.851 "/>
<path fill="#A8C6CC" d="M60.25,17.992c-1.161-0.663-5.068-0.114-5.482-2.104c-0.414-1.991,1.428-3.332,1.594-4.328
	C56.526,10.566,57.08,4,51.984,4c-5.098,0-4.526,6.562-4.36,7.561c0.165,0.996,2.024,2.337,1.61,4.328
	c-0.415,1.989-4.322,1.439-5.482,2.104c-1.162,0.663-1.928,2.921-1.928,2.921h20.353C62.176,20.913,61.412,18.656,60.25,17.992z"/>
<g id="token_x5F_icon_1_">
	<g>
		<g>
			<circle fill="#F9CF00" cx="95.01" cy="10.101" r="7.83"/>
		</g>
	</g>
	<g>
		<g>
			<path d="M97.799,7.567c0.062,0.288,0.097,0.571,0.097,0.853c0,0.274-0.033,0.56-0.097,0.848l-1.92-0.032v3.824
				c0,0.501,0.233,0.752,0.703,0.752h0.928c0.129,0.384,0.192,0.729,0.192,1.024s-0.021,0.512-0.063,0.64
				c-0.769,0.106-1.473,0.16-2.112,0.16c-1.312,0-1.968-0.714-1.968-2.146v-4.24l-1.247,0.016c-0.064-0.233-0.097-0.517-0.097-0.848
				c0-0.33,0.031-0.613,0.097-0.853l1.247,0.021V6.607c0-0.528,0.097-0.902,0.287-1.12c0.192-0.213,0.523-0.315,0.992-0.315h0.928
				l0.113,0.107v2.32L97.799,7.567z"/>
		</g>
	</g>
</g>
<g id="karmaicon">
	<g>
		<g>
			<circle fill="#55830B" cx="727.83" cy="38.17" r="7.83"/>
		</g>
	</g>
	<g>
		<g>
			<path d="M727.58,40.547l-0.461,0.015v2.813c-0.289,0.056-0.627,0.084-1.009,0.084c-0.384,0-0.729-0.028-1.036-0.084V33.169
				l0.098-0.103h0.812c0.41,0,0.702,0.101,0.875,0.287c0.172,0.191,0.26,0.521,0.26,0.978v4.508h0.252
				c0.168,0,0.299-0.084,0.392-0.252l0.803-1.47c0.253-0.518,0.645-0.771,1.178-0.771c0.271,0,0.657,0.009,1.161,0.028l0.084,0.107
				l-1.139,2.133c-0.178,0.322-0.406,0.588-0.695,0.779c0.56,0.206,0.956,0.612,1.188,1.223l0.354,1.03
				c0.146,0.401,0.268,0.682,0.354,0.826c0.089,0.149,0.193,0.271,0.315,0.354c-0.374,0.438-0.841,0.652-1.399,0.652
				c-0.299,0-0.521-0.064-0.68-0.21c-0.154-0.14-0.291-0.387-0.412-0.736l-0.42-1.232c-0.113-0.299-0.231-0.499-0.356-0.602
				C727.966,40.598,727.795,40.547,727.58,40.547z"/>
		</g>
		<g>
			<path fill="#FFFFFF" d="M727.58,40.547l-0.461,0.015v2.813c-0.289,0.056-0.627,0.084-1.009,0.084
				c-0.384,0-0.729-0.028-1.036-0.084V33.169l0.098-0.103h0.812c0.41,0,0.702,0.101,0.875,0.287c0.172,0.191,0.26,0.521,0.26,0.978
				v4.508h0.252c0.168,0,0.299-0.084,0.392-0.252l0.803-1.47c0.253-0.518,0.645-0.771,1.178-0.771c0.271,0,0.657,0.009,1.161,0.028
				l0.084,0.107l-1.139,2.133c-0.178,0.322-0.406,0.588-0.695,0.779c0.56,0.206,0.956,0.612,1.188,1.223l0.354,1.03
				c0.146,0.401,0.268,0.682,0.354,0.826c0.089,0.149,0.193,0.271,0.315,0.354c-0.374,0.438-0.841,0.652-1.399,0.652
				c-0.299,0-0.521-0.064-0.68-0.21c-0.154-0.14-0.291-0.387-0.412-0.736l-0.42-1.232c-0.113-0.299-0.231-0.499-0.356-0.602
				C727.966,40.598,727.795,40.547,727.58,40.547z"/>
		</g>
	</g>
</g>
<g id="karmaicon_1_">
	<g>
		<g>
			<circle fill="#AFFF49" cx="74" cy="12.457" r="7.83"/>
		</g>
	</g>
	<path d="M73.75,14.833l-0.461,0.015v2.813c-0.289,0.056-0.627,0.084-1.009,0.084c-0.383,0-0.729-0.028-1.036-0.084V7.456
		l0.098-0.103h0.812c0.41,0,0.702,0.101,0.875,0.287c0.172,0.191,0.26,0.521,0.26,0.978v4.508h0.252
		c0.168,0,0.299-0.084,0.392-0.252l0.798-1.475c0.253-0.513,0.645-0.77,1.178-0.77c0.271,0,0.657,0.009,1.161,0.028l0.084,0.107
		l-1.135,2.13c-0.177,0.327-0.41,0.592-0.699,0.784c0.56,0.206,0.956,0.612,1.188,1.218l0.352,1.035
		c0.148,0.401,0.268,0.682,0.355,0.826c0.089,0.149,0.193,0.271,0.315,0.354c-0.374,0.438-0.84,0.653-1.399,0.653
		c-0.299,0-0.525-0.064-0.68-0.21c-0.154-0.14-0.291-0.387-0.412-0.74l-0.42-1.229c-0.113-0.299-0.231-0.499-0.357-0.604
		C74.136,14.885,73.965,14.833,73.75,14.833z"/>
</g>
<g>
	<path fill="#A8C6CC" d="M159.938,93.52c0,1.75-1.418,3.168-3.168,3.168h-13.664c-1.75,0-3.168-1.418-3.168-3.168V79.855
		c0-1.75,1.418-3.168,3.168-3.168h13.664c1.75,0,3.168,1.418,3.168,3.168V93.52z"/>
	<polygon fill="#E8F0F1" points="154.938,85.688 150.938,85.688 150.938,81.688 148.938,81.688 148.938,85.688 144.938,85.688 
		144.938,87.688 148.938,87.688 148.938,91.688 150.938,91.688 150.938,87.688 154.938,87.688 	"/>
</g>
<path fill="#FFFFFF" d="M186.759,84.688c-0.145-4-3.598-7.797-7.849-7.797c-4.342,0-7.713,3.416-7.713,7.758
	c0,4.25,2.74,7.604,7.74,7.744v-3.252c-2-0.142-4.487-2.146-4.487-4.596c0-2.542,1.993-4.402,4.534-4.402
	c2.449,0,4.38,2.545,4.521,4.545h-3.401l4.688,8.12l4.688-8.12H186.759L186.759,84.688z"/>
<g>
	<g>
		
			<linearGradient id="SVGID_3_" gradientUnits="userSpaceOnUse" x1="-73.0112" y1="86.49" x2="-73.0112" y2="53.6504" gradientTransform="matrix(1 0 0 -1 84 195.688)">
			<stop  offset="0" style="stop-color:#35E6CD"/>
			<stop  offset="1" style="stop-color:#0098CB"/>
		</linearGradient>
		<path fill="url(#SVGID_3_)" d="M1,137.366v-0.125c0-1.213,0.418-2.008,1.421-3.094l10.407-11.493H3.967
			c-1.42,0-2.59-1.129-2.59-2.549c0-1.422,1.17-2.592,2.59-2.592h13.917c1.797,0,3.093,1.045,3.093,2.549v0.126
			c0,1.211-0.417,2.007-1.42,3.094L9.108,134.776h9.278c1.421,0,2.591,1.17,2.591,2.592c0,1.421-1.17,2.549-2.591,2.549H4.092
			C2.295,139.915,1,138.871,1,137.366z"/>
		
			<linearGradient id="SVGID_4_" gradientUnits="userSpaceOnUse" x1="-51.4058" y1="86.491" x2="-51.4058" y2="53.6489" gradientTransform="matrix(1 0 0 -1 84 195.688)">
			<stop  offset="0" style="stop-color:#35E6CD"/>
			<stop  offset="1" style="stop-color:#0098CB"/>
		</linearGradient>
		<path fill="url(#SVGID_4_)" d="M20.474,128.84v-0.083c0-6.437,5.182-11.66,12.162-11.66c6.938,0,12.078,5.141,12.078,11.576v0.084
			c0,6.437-5.182,11.661-12.162,11.661C25.614,140.418,20.474,135.277,20.474,128.84z M38.445,128.84v-0.083
			c0-3.302-2.382-6.187-5.893-6.187c-3.637,0-5.81,2.801-5.81,6.103v0.084c0,3.302,2.383,6.186,5.894,6.186
			C36.272,134.943,38.445,132.142,38.445,128.84z"/>
		
			<linearGradient id="SVGID_5_" gradientUnits="userSpaceOnUse" x1="-26.27" y1="86.4924" x2="-26.27" y2="53.6503" gradientTransform="matrix(1 0 0 -1 84 195.688)">
			<stop  offset="0" style="stop-color:#35E6CD"/>
			<stop  offset="1" style="stop-color:#0098CB"/>
		</linearGradient>
		<path fill="url(#SVGID_5_)" d="M45.965,112.331c0-1.755,1.421-3.175,3.176-3.175s3.177,1.42,3.177,3.175v8.4
			c1.546-2.09,3.678-3.636,6.979-3.636c5.224,0,10.197,4.096,10.197,11.576v0.084c0,7.479-4.889,11.576-10.197,11.576
			c-3.386,0-5.475-1.546-6.979-3.342v0.041c0,1.713-1.421,3.134-3.177,3.134c-1.756,0-3.176-1.421-3.176-3.175V112.331
			L45.965,112.331z M63.142,128.757v-0.084c0-3.72-2.508-6.186-5.475-6.186c-2.968,0-5.433,2.466-5.433,6.186v0.084
			c0,3.721,2.465,6.186,5.433,6.186C60.634,134.943,63.142,132.519,63.142,128.757z"/>
		
			<linearGradient id="SVGID_6_" gradientUnits="userSpaceOnUse" x1="-2.3501" y1="86.491" x2="-2.3501" y2="53.6489" gradientTransform="matrix(1 0 0 -1 84 195.688)">
			<stop  offset="0" style="stop-color:#35E6CD"/>
			<stop  offset="1" style="stop-color:#0098CB"/>
		</linearGradient>
		<path fill="url(#SVGID_6_)" d="M82.423,140.418c-6.729,0-11.702-4.725-11.702-11.578v-0.083c0-6.395,4.555-11.66,11.075-11.66
			c7.481,0,10.782,6.146,10.782,10.782c0,1.839-1.295,3.051-2.967,3.051h-12.58c0.627,2.884,2.633,4.389,5.475,4.389
			c1.756,0,3.218-0.543,4.514-1.505c0.46-0.334,0.877-0.502,1.546-0.502c1.421,0,2.466,1.087,2.466,2.508
			c0,0.838-0.376,1.465-0.835,1.882C88.232,139.372,85.683,140.418,82.423,140.418z M86.519,126.96
			c-0.376-2.842-2.048-4.765-4.722-4.765c-2.633,0-4.347,1.881-4.849,4.765H86.519z"/>
	</g>
	<path fill="#F7FFCC" d="M100.078,123.57c0.165-0.693,0.217-1.429,0.049-2.142c-0.184-0.775-0.714-1.849-2.196-2.543l-0.092-0.043
		l-0.098-0.026c-4.053-1.092-6.776-4.249-6.776-7.854c0-4.543,4.357-8.24,9.714-8.24c5.355,0,9.713,3.697,9.713,8.24
		c0,1.915-0.797,3.783-2.244,5.259l-0.024,0.025C106.386,118.167,103.048,121.492,100.078,123.57z"/>
	
		<linearGradient id="SVGID_7_" gradientUnits="userSpaceOnUse" x1="16.6792" y1="94.1243" x2="16.6792" y2="52.2523" gradientTransform="matrix(1 0 0 -1 84 195.688)">
		<stop  offset="0" style="stop-color:#35E6CD"/>
		<stop  offset="1" style="stop-color:#0098CB"/>
	</linearGradient>
	<path fill="url(#SVGID_7_)" d="M100.679,103.876c4.718,0,8.557,3.178,8.557,7.084c0,2.063-1.041,3.56-1.914,4.45l-0.024,0.022
		l-0.022,0.025l-0.01,0.011l-0.008,0.009c-1.514,1.675-3.787,3.926-5.994,5.734c-0.004-0.018-0.008-0.033-0.012-0.051
		c-0.243-1.025-0.931-2.435-2.831-3.324l-0.184-0.087l-0.196-0.052c-3.542-0.954-5.92-3.663-5.92-6.739
		C92.122,107.054,95.96,103.876,100.679,103.876 M100.679,101.564c-6.003,0-10.87,4.207-10.87,9.396c0,4.215,3.21,7.78,7.632,8.973
		c3.676,1.721,0,6.377,0,6.377c4.529-1.513,11.526-9.273,11.533-9.281c1.605-1.637,2.574-3.755,2.574-6.067
		C111.548,105.771,106.682,101.564,100.679,101.564L100.679,101.564z"/>
</g>
<g>
	<g>
		
			<linearGradient id="SVGID_8_" gradientUnits="userSpaceOnUse" x1="33.1772" y1="190.2034" x2="33.1772" y2="166.6116" gradientTransform="matrix(1 0 0 -1 84 195.688)">
			<stop  offset="0" style="stop-color:#35E6CD"/>
			<stop  offset="1" style="stop-color:#0098CB"/>
		</linearGradient>
		<path fill="url(#SVGID_8_)" d="M110,25.723v-0.089c0-0.872,0.301-1.442,1.021-2.222l7.477-8.259h-6.366
			c-1.021,0-1.861-0.812-1.861-1.83c0-1.021,0.84-1.862,1.861-1.862h9.999c1.292,0,2.222,0.75,2.222,1.831v0.091
			c0,0.87-0.3,1.442-1.021,2.222l-7.507,8.257h6.666c1.021,0,1.861,0.842,1.861,1.861c0,1.021-0.841,1.831-1.861,1.831h-10.27
			C110.931,27.554,110,26.804,110,25.723z"/>
		
			<linearGradient id="SVGID_9_" gradientUnits="userSpaceOnUse" x1="48.6997" y1="190.2043" x2="48.6997" y2="166.6087" gradientTransform="matrix(1 0 0 -1 84 195.688)">
			<stop  offset="0" style="stop-color:#35E6CD"/>
			<stop  offset="1" style="stop-color:#0098CB"/>
		</linearGradient>
		<path fill="url(#SVGID_9_)" d="M123.991,19.597v-0.06c0-4.624,3.724-8.377,8.738-8.377c4.985,0,8.678,3.692,8.678,8.316v0.061
			c0,4.624-3.723,8.378-8.737,8.378C127.684,27.915,123.991,24.221,123.991,19.597z M136.902,19.597v-0.06
			c0-2.372-1.711-4.444-4.233-4.444c-2.612,0-4.174,2.011-4.174,4.384v0.061c0,2.372,1.712,4.443,4.234,4.443
			C135.342,23.982,136.902,21.969,136.902,19.597z"/>
		
			<linearGradient id="SVGID_10_" gradientUnits="userSpaceOnUse" x1="66.7583" y1="190.2043" x2="66.7583" y2="166.6095" gradientTransform="matrix(1 0 0 -1 84 195.688)">
			<stop  offset="0" style="stop-color:#35E6CD"/>
			<stop  offset="1" style="stop-color:#0098CB"/>
		</linearGradient>
		<path fill="url(#SVGID_10_)" d="M142.305,7.736c0-1.261,1.021-2.28,2.281-2.28c1.263,0,2.284,1.021,2.284,2.28v6.036
			c1.11-1.501,2.642-2.611,5.014-2.611c3.753,0,7.326,2.941,7.326,8.316v0.061c0,5.375-3.513,8.316-7.326,8.316
			c-2.432,0-3.934-1.11-5.014-2.4v0.028c0,1.23-1.021,2.252-2.284,2.252c-1.26,0-2.281-1.021-2.281-2.28V7.736z M154.646,19.537
			v-0.061c0-2.673-1.803-4.442-3.935-4.442c-2.131,0-3.902,1.771-3.902,4.442v0.061c0,2.673,1.771,4.443,3.902,4.443
			C152.844,23.982,154.646,22.24,154.646,19.537z"/>
		
			<linearGradient id="SVGID_11_" gradientUnits="userSpaceOnUse" x1="83.9429" y1="190.2043" x2="83.9429" y2="166.6087" gradientTransform="matrix(1 0 0 -1 84 195.688)">
			<stop  offset="0" style="stop-color:#35E6CD"/>
			<stop  offset="1" style="stop-color:#0098CB"/>
		</linearGradient>
		<path fill="url(#SVGID_11_)" d="M168.498,27.915c-4.835,0-8.407-3.395-8.407-8.318v-0.06c0-4.595,3.273-8.377,7.958-8.377
			c5.375,0,7.746,4.415,7.746,7.747c0,1.319-0.931,2.19-2.131,2.19h-9.039c0.45,2.072,1.892,3.153,3.934,3.153
			c1.262,0,2.312-0.391,3.242-1.081c0.332-0.24,0.631-0.36,1.111-0.36c1.021,0,1.771,0.781,1.771,1.802
			c0,0.602-0.271,1.052-0.6,1.353C172.673,27.164,170.84,27.915,168.498,27.915z M171.441,18.246
			c-0.271-2.042-1.471-3.422-3.394-3.422c-1.893,0-3.124,1.351-3.483,3.422H171.441z"/>
	</g>
	<path fill="#F7FFCC" d="M181.184,15.811c0.118-0.5,0.154-1.026,0.035-1.539c-0.133-0.558-0.515-1.329-1.578-1.828l-0.065-0.03
		l-0.07-0.02c-2.912-0.784-4.868-3.053-4.868-5.644c0-3.265,3.131-5.92,6.979-5.92s6.979,2.655,6.979,5.92
		c0,1.375-0.572,2.718-1.613,3.777l-0.019,0.019C185.715,11.929,183.316,14.318,181.184,15.811z"/>
	
		<linearGradient id="SVGID_12_" gradientUnits="userSpaceOnUse" x1="97.6138" y1="195.6877" x2="97.6138" y2="165.6053" gradientTransform="matrix(1 0 0 -1 84 195.688)">
		<stop  offset="0" style="stop-color:#35E6CD"/>
		<stop  offset="1" style="stop-color:#0098CB"/>
	</linearGradient>
	<path fill="url(#SVGID_12_)" d="M181.614,1.661c3.39,0,6.147,2.282,6.147,5.09c0,1.482-0.746,2.557-1.376,3.198l-0.017,0.017
		l-0.018,0.018l-0.007,0.009l-0.005,0.006c-1.089,1.203-2.722,2.819-4.308,4.12c-0.003-0.013-0.005-0.023-0.007-0.037
		c-0.176-0.737-0.67-1.748-2.033-2.389l-0.133-0.062l-0.143-0.037c-2.544-0.686-4.254-2.632-4.254-4.842
		C175.466,3.945,178.225,1.661,181.614,1.661 M181.614,0c-4.312,0-7.81,3.021-7.81,6.751c0,3.027,2.305,5.589,5.483,6.447
		c2.64,1.235,0,4.582,0,4.582c3.253-1.088,8.28-6.664,8.285-6.669c1.153-1.176,1.85-2.697,1.85-4.359
		C189.424,3.023,185.928,0,181.614,0L181.614,0z"/>
</g>
</svg>
