<?xml version="1.0" encoding="utf-8"?>
<!-- Generator: Adobe Illustrator 16.0.0, SVG Export Plug-In . SVG Version: 6.00 Build 0)  -->
<!DOCTYPE svg PUBLIC "-//W3C//DTD SVG 1.1//EN" "http://www.w3.org/Graphics/SVG/1.1/DTD/svg11.dtd">
<svg version="1.1" id="Layer_1" xmlns="http://www.w3.org/2000/svg" xmlns:xlink="http://www.w3.org/1999/xlink" x="0px" y="0px"
	 width="334.875px" height="220.688px" viewBox="0 0 334.875 220.688" enable-background="new 0 0 334.875 220.688"
	 xml:space="preserve">
<path opacity="0.6" fill="#DD3366" enable-background="new    " d="M76.503,30.056c-3.694,0-6.688,2.995-6.688,6.688
	c0,3.691,2.994,6.688,6.688,6.688s6.688-2.994,6.688-6.688C83.191,33.05,80.197,30.056,76.503,30.056z M80.182,38.75H73.16
	c-0.925,0-1.673-0.577-1.673-1.5s0.748-1.5,1.673-1.5h7.022c0.924,0,1.672,0.577,1.672,1.5S81.105,38.75,80.182,38.75z"/>
<g>
	<path opacity="0.6" fill="#273B40" enable-background="new    " d="M50.114,43.75h-6.496c-2.646,0-5.119-2.379-5.119-5.026V36.05
		c0-2.528,2.379-4.3,5.119-4.3h1.362c0.528,0,0.956,0.473,0.956,1c0,0.524-0.428,1-0.956,1h-1.362c-1.471,0-3.119,0.646-3.119,2.3
		v2.674c0,1.571,1.547,3.026,3.119,3.026h6.496c1.581,0,2.866-1.271,2.866-2.854c0-0.524,0.427-0.944,0.956-0.944
		c0.527,0,0.955,0.461,0.955,0.985C54.89,41.574,52.748,43.75,50.114,43.75z"/>
	<path fill="#273B40" d="M53.294,34.75H51.5v-2.778c0-0.527-0.473-0.955-1.001-0.955c-0.527,0-0.999,0.428-0.999,0.955v2.778h-2.594
		c-0.527,0-0.956,0.473-0.956,1c0,0.524,0.428,1,0.956,1H49.5v1.606c0,0.527,0.472,0.956,0.999,0.956
		c0.528,0,1.001-0.428,1.001-0.956V36.75h1.794c0.527,0,0.956-0.476,0.956-1C54.25,35.223,53.821,34.75,53.294,34.75z"/>
</g>
<path fill="#273B40" d="M46.5,56.836c-3.267,0-5.915,2.646-5.915,5.914c0,3.268,2.648,5.914,5.915,5.914
	c3.266,0,5.914-2.646,5.914-5.914C52.414,59.484,49.766,56.836,46.5,56.836z M46.5,58.807c0.878,0,1.688,0.293,2.345,0.781
	l-6.079,4.42c-0.133-0.396-0.209-0.816-0.209-1.258C42.557,60.576,44.326,58.807,46.5,58.807z M46.5,66.693
	c-1.022,0-1.952-0.396-2.653-1.032l6.24-4.537c0.227,0.497,0.356,1.048,0.356,1.629C50.443,64.924,48.674,66.693,46.5,66.693z"/>
<path fill="#273B40" d="M10.25,0c-4.963,0-9,4.037-9,9s4.037,9,9,9s9-4.037,9-9S15.213,0,10.25,0z M11.098,14.914
	c-0.306,0.168-0.683,0.254-1.132,0.254c-0.449,0-0.826-0.084-1.132-0.254c-0.117-0.201-0.174-0.501-0.174-0.902
	c0-0.4,0.059-0.702,0.174-0.903c0.274-0.168,0.651-0.253,1.132-0.253c0.479,0,0.857,0.084,1.132,0.253
	c0.116,0.201,0.174,0.502,0.174,0.903S11.214,14.713,11.098,14.914z M11.953,9.88l-0.966,0.506l-0.158,1.267
	c-0.243,0.085-0.536,0.13-0.878,0.13c-0.342,0-0.641-0.045-0.895-0.13L8.93,9.294l0.19-0.237l0.855-0.396
	c1.044-0.478,1.566-1.023,1.566-1.646c0-0.337-0.111-0.604-0.332-0.799c-0.222-0.195-0.57-0.292-1.045-0.292
	s-1.06,0.184-1.756,0.553C8.197,6.309,8.006,6.06,7.839,5.733c-0.17-0.324-0.259-0.638-0.27-0.934
	c1.002-0.601,2.045-0.902,3.126-0.902c1.082,0,1.905,0.263,2.469,0.783c0.565,0.523,0.848,1.212,0.848,2.066
	C14.011,8.106,13.325,9.151,11.953,9.88z"/>
<g id="settings">
	<path fill="#273B40" d="M38.05,9.309c0.003-0.091,0.009-0.137,0.009-0.229c0-0.81-0.093-1.563-0.286-2.337l-2.299,0.665
		C35.21,6.346,34.71,5.39,34.036,4.61l1.739-1.747c-0.567-0.655-1.216-1.219-1.934-1.675l-1.2,2.221
		c-0.859-0.541-1.848-0.863-2.906-0.896l-0.082-2.509c-0.112-0.005,0.114,0,0,0l0,0c-0.834,0-1.763,0.104-2.557,0.366l0.739,2.398
		c-0.995,0.312-1.886,0.885-2.602,1.65l-1.672-1.824c-0.592,0.63-1.09,1.354-1.489,2.141l2.083,1.225
		c-0.466,0.922-1.292,1.977-1.301,3.101l-2.795-0.021V9.13c0,0.868,0.602,1.729,0.825,2.562l2.475-0.795
		c0.284,1.107,0.962,2.103,1.689,2.896l-1.628,1.734c0.58,0.646,1.252,1.193,1.978,1.634l1.161-2.233
		c0.848,0.507,1.826,0.802,2.858,0.824l-0.04,2.489c0.057,0.003,0.116,0.037,0.172,0.037c0.777,0,1.548-0.094,2.292-0.313
		l-0.638-2.455c0.979-0.295,1.859-0.843,2.575-1.58l1.64,1.86c0.603-0.619,1.118-1.328,1.529-2.106l-2.064-1.271
		c0.508-0.958,0.803-2.065,0.807-3.251L38.05,9.309z M29.55,12.742c-1.847,0-3.35-1.622-3.35-3.616s1.503-3.617,3.35-3.617
		c1.847,0,3.35,1.623,3.35,3.617S31.397,12.742,29.55,12.742z"/>
</g>
<g>
	<polygon fill="#8CC63F" points="12.5,49.871 5.439,42.811 7.561,40.689 12.5,45.629 20.939,37.189 23.061,39.311 	"/>
</g>
<polygon fill="#FF0000" points="22.561,58.811 20.439,56.689 14,63.129 7.561,56.689 5.439,58.811 11.879,65.25 5.439,71.689 
	7.561,73.811 14,67.371 20.439,73.811 22.561,71.689 16.121,65.25 "/>
<path fill="#9FABCE" d="M6.5,25.75c-1.657,0-3,1.343-3,3s1.343,3,3,3s3-1.343,3-3S8.157,25.75,6.5,25.75z M16.5,25.75
	c-1.657,0-3,1.343-3,3s1.343,3,3,3s3-1.343,3-3S18.157,25.75,16.5,25.75z M26.5,25.75c-1.657,0-3,1.343-3,3s1.343,3,3,3s3-1.343,3-3
	S28.157,25.75,26.5,25.75z"/>
<g>
	<path fill="#273B40" d="M77.875,51.375h-11c-1.657,0-3,1.344-3,3v6c0,1.656,1.343,3,3,3h2v4.731l3.996-4.731h5.004
		c1.656,0,3-1.344,3-3v-6C80.875,52.719,79.531,51.375,77.875,51.375z"/>
</g>
<path fill="#273B40" d="M100.451,37.964c-5.118,0-9.267,4.146-9.267,9.267s4.149,9.27,9.267,9.27c5.118,0,9.267-4.149,9.267-9.27
	C109.718,42.115,105.569,37.964,100.451,37.964z M102.865,52.247c-0.299,0-0.524-0.07-0.679-0.211
	c-0.154-0.143-0.292-0.391-0.413-0.741l-0.42-1.231c-0.112-0.299-0.231-0.5-0.357-0.603c-0.126-0.104-0.295-0.153-0.51-0.153
	l-0.462,0.018v2.812c-0.29,0.057-0.625,0.084-1.008,0.084c-0.383,0-0.728-0.027-1.036-0.084V41.93l0.098-0.098h0.812
	c0.411,0,0.702,0.096,0.875,0.287c0.173,0.188,0.259,0.516,0.259,0.973V47.6h0.252c0.168,0,0.298-0.084,0.392-0.252l0.798-1.47
	c0.252-0.513,0.644-0.771,1.176-0.771c0.271,0,0.658,0.013,1.162,0.028l0.084,0.112l-1.135,2.128
	c-0.178,0.327-0.41,0.588-0.699,0.784c0.56,0.205,0.956,0.608,1.189,1.218l0.35,1.036c0.15,0.397,0.269,0.676,0.357,0.826
	c0.089,0.146,0.193,0.266,0.314,0.35C103.891,52.027,103.424,52.247,102.865,52.247z"/>
<path fill="#273B40" d="M123.451,42.964c-5.118,0-9.267,4.146-9.267,9.267s4.149,9.27,9.267,9.27c5.118,0,9.267-4.149,9.267-9.27
	C132.718,47.115,128.569,42.964,123.451,42.964z M126.427,51.269l-1.92-0.032v3.824c0,0.502,0.234,0.752,0.703,0.752h0.929
	c0.128,0.394,0.191,0.729,0.191,1.023c0,0.299-0.021,0.514-0.063,0.641c-0.769,0.106-1.473,0.159-2.112,0.159
	c-1.312,0-1.968-0.714-1.968-2.144v-4.24l-1.248,0.016c-0.064-0.231-0.096-0.517-0.096-0.848c0-0.33,0.031-0.613,0.096-0.848
	l1.248,0.016V48.61c0-0.53,0.096-0.904,0.288-1.117c0.191-0.216,0.522-0.32,0.992-0.32h0.928l0.112,0.112v2.317l1.92-0.028
	c0.063,0.285,0.096,0.568,0.096,0.848S126.491,50.981,126.427,51.269z"/>
<g opacity="0.1">
	<g>
		<circle fill="#090015" cx="150.118" cy="51.994" r="11.583"/>
	</g>
</g>
<g>
	<g>
		<linearGradient id="SVGID_1_" gradientUnits="userSpaceOnUse" x1="150.1182" y1="39.844" x2="150.1182" y2="63.844">
			<stop  offset="0" style="stop-color:#E635A8"/>
			<stop  offset="1" style="stop-color:#CB0000"/>
		</linearGradient>
		<circle fill="url(#SVGID_1_)" cx="150.118" cy="50.994" r="11.583"/>
	</g>
</g>
<g>
	<path opacity="0.5" fill="#9FABCE" enable-background="new    " d="M27.081,80.141c1.313,0,1.794,0.438,1.794,1.75v11.117
		c0,1.312-0.26,2.367-1.574,2.367H8.242c-1.313,0-2.367-1.058-2.367-2.367V81.891c0-1.312,1.054-1.516,2.367-1.516h18.633
		 M27.301,78.375H8.242c-2.192,0-4.367,1.319-4.367,3.516v11.117c0,2.192,2.175,4.367,4.367,4.367h19.059
		c2.193,0,3.574-2.175,3.574-4.367V81.891C30.875,79.697,29.494,78.375,27.301,78.375L27.301,78.375z"/>
	<polygon fill="#9FABCE" points="13.875,82.975 21.915,87.616 13.875,92.258 	"/>
</g>
<path opacity="0.5" fill="#9FABCE" enable-background="new    " d="M43.67,91.102c-0.331,0.328-1.41,0.277-2.45,0.273l-2.259-0.002
	c-1.704,0-3.086-1.39-3.086-3.091v-1.818c0-1.704,1.382-3.104,3.086-3.104l2.259-0.014c1.043,0,2.119-0.031,2.45,0.297
	c0.162,0.162,0.195,0.729,0.195,0.729h2c0-1-0.264-1.627-0.785-2.146c-0.92-0.916-2.351-0.854-3.871-0.854h-2.254
	c-2.807,0-5.081,2.278-5.081,5.089v1.814c0,2.811,2.274,5.097,5.082,5.097h2.253c0.137,0,0.272,0,0.407,0
	c1.364,0,2.626-0.021,3.463-0.854c0.521-0.521,0.785-1.146,0.785-2.146h-2C43.865,90.375,43.832,90.939,43.67,91.102z
	 M54.779,81.361l-2.258-0.014c-1.521-0.008-2.951-0.036-3.871,0.88c-0.52,0.521-0.784,1.147-0.784,2.147h2
	c0,0,0.034-0.565,0.195-0.729c0.331-0.33,1.406-0.271,2.45-0.271h2.264c1.704,0,3.101,1.385,3.101,3.089v1.818
	c0,1.7-1.391,3.102-3.096,3.102l-2.268,0.014c-1.042,0.004-2.119,0.033-2.45-0.295c-0.161-0.162-0.195-0.728-0.195-0.728h-2
	c0,1,0.265,1.625,0.784,2.144c0.838,0.834,2.1,0.856,3.464,0.856c0.135,0,0.271,0,0.407,0h2.254c2.808,0,5.101-2.286,5.101-5.093
	v-1.818C59.875,83.657,57.586,81.361,54.779,81.361z"/>
<rect x="39.875" y="86.375" fill="#9FABCE" width="14" height="2"/>
<g>
	<path fill="#657C8D" d="M268.057,53.415c-0.738-0.422-3.228-0.072-3.49-1.34c-0.266-1.271,0.908-2.121,1.021-2.759
		c0.104-0.633,0.458-4.812-2.788-4.812c-3.241,0-2.882,4.182-2.771,4.812c0.104,0.638,1.289,1.488,1.021,2.759
		c-0.27,1.268-2.753,0.917-3.485,1.34c-0.731,0.422-1.229,1.857-1.229,1.857h12.961C269.283,55.275,268.796,53.837,268.057,53.415z"
		/>
</g>
<g>
	<linearGradient id="SVGID_2_" gradientUnits="userSpaceOnUse" x1="243.8115" y1="43.1775" x2="243.8115" y2="56.1818">
		<stop  offset="0" style="stop-color:#35E6CD"/>
		<stop  offset="1" style="stop-color:#0098CB"/>
	</linearGradient>
	<path fill="url(#SVGID_2_)" d="M249.055,53.415c-0.738-0.422-3.228-0.072-3.49-1.34c-0.266-1.271,0.908-2.121,1.021-2.759
		c0.104-0.633,0.458-4.812-2.788-4.812c-3.245,0-2.882,4.182-2.771,4.812c0.104,0.638,1.289,1.488,1.021,2.759
		c-0.271,1.268-2.753,0.917-3.489,1.34c-0.729,0.422-1.229,1.857-1.229,1.857h12.963C250.281,55.275,249.794,53.837,249.055,53.415z
		"/>
</g>
<g>
	<path fill="#F7E470" d="M228.053,51.415c-0.738-0.422-3.228-0.072-3.49-1.34c-0.266-1.271,0.908-2.121,1.021-2.759
		c0.104-0.633,0.458-4.812-2.788-4.812c-3.245,0-2.882,4.182-2.771,4.812c0.104,0.638,1.287,1.488,1.021,2.759
		c-0.271,1.268-2.753,0.917-3.489,1.34c-0.729,0.422-1.229,1.857-1.229,1.857h12.962C229.279,53.275,228.792,51.837,228.053,51.415z
		"/>
	<g>
		<polygon points="228.639,55.705 228.574,55.445 228.51,55.705 218.596,55.705 218.059,54.84 218.059,55.705 215.029,55.705 
			215.029,48.707 217.677,48.707 218.221,49.582 218.221,48.707 227.184,48.707 227.23,48.916 227.285,48.707 229.873,48.707 
			229.932,48.941 229.986,48.707 233.16,48.707 231.277,55.705 		"/>
		<path fill="#FFFFFF" d="M219.221,53.061h-0.014l-2.086-3.354h-1.092v4.998h1.027v-3.35h0.016l2.078,3.35h1.1v-4.998h-1.029V53.061
			L219.221,53.061z M222.314,52.557h2.422v-0.854h-2.422v-1.071h2.639v-0.924h-3.737v4.998h3.794v-0.924h-2.695V52.557
			L222.314,52.557z M230.777,49.707l-0.818,3.44h-0.016l-0.854-3.44h-1.028l-0.867,3.397h-0.014l-0.791-3.397h-1.101l1.321,4.998
			h1.113l0.832-3.401h0.014l0.85,3.401h1.092l1.346-4.998H230.777z"/>
	</g>
</g>
<g>
	<ellipse fill-opacity="0.5" cx="171.434" cy="47.921" rx="5.531" ry="1.873"/>
	<g>
		<path fill="#F7931E" d="M178.038,38.904c-0.58,0-1.049,0.454-1.049,1.015c0,0.132,0.026,0.259,0.073,0.374l-3.203,1.751
			l-1.819-3.724c0.38-0.148,0.649-0.514,0.649-0.934c0-0.559-0.479-1.012-1.051-1.012c-0.58,0-1.061,0.454-1.061,1.012
			c0,0.356,0.188,0.669,0.479,0.849l-1.854,3.809l-3.087-1.688c0.039-0.104,0.062-0.219,0.062-0.337
			c0-0.558-0.474-1.011-1.053-1.011c-0.577,0-1.05,0.453-1.05,1.011c0,0.562,0.473,1.016,1.05,1.016c0.114,0,0.229-0.021,0.33-0.055
			c0,0,1.38,4.152,1.979,6.292c3.688,2.962,8.184,0,8.184,0l2.012-6.418c0.125,0.048,0.265,0.077,0.399,0.077
			c0.576,0,1.05-0.453,1.05-1.013C179.087,39.357,178.616,38.904,178.038,38.904z"/>
		
			<linearGradient id="SVGID_3_" gradientUnits="userSpaceOnUse" x1="-1551.9248" y1="3311.7922" x2="-1536.9209" y2="3311.7922" gradientTransform="matrix(1 0 0 1 1716 -3269.3125)">
			<stop  offset="0" style="stop-color:#000000;stop-opacity:0.43"/>
			<stop  offset="0.3681" style="stop-color:#000000;stop-opacity:0.0448"/>
			<stop  offset="0.6196" style="stop-color:#000000;stop-opacity:0"/>
			<stop  offset="1" style="stop-color:#000000;stop-opacity:0.5"/>
		</linearGradient>
		<path fill="url(#SVGID_3_)" d="M178.038,38.904c-0.58,0-1.049,0.454-1.049,1.015c0,0.132,0.026,0.259,0.073,0.374l-3.203,1.751
			l-1.819-3.724c0.38-0.148,0.649-0.514,0.649-0.934c0-0.559-0.479-1.012-1.051-1.012c-0.58,0-1.061,0.454-1.061,1.012
			c0,0.356,0.188,0.669,0.479,0.849l-1.854,3.809l-3.087-1.688c0.039-0.104,0.062-0.219,0.062-0.337
			c0-0.558-0.474-1.011-1.053-1.011c-0.577,0-1.05,0.453-1.05,1.011c0,0.562,0.473,1.016,1.05,1.016c0.114,0,0.229-0.021,0.33-0.055
			c0,0,1.38,4.152,1.979,6.292c3.688,2.962,8.184,0,8.184,0l2.012-6.418c0.125,0.048,0.265,0.077,0.399,0.077
			c0.576,0,1.05-0.453,1.05-1.013C179.087,39.357,178.616,38.904,178.038,38.904z"/>
	</g>
	<path fill="#FCEE21" d="M172.641,37.486c0.021-0.063,0.033-0.134,0.041-0.201c-0.055-0.514-0.5-0.907-1.043-0.907
		c-0.541,0-0.986,0.396-1.043,0.901c0.008,0.07,0.022,0.142,0.045,0.204c0.133-0.406,0.529-0.706,0.998-0.706
		S172.506,37.076,172.641,37.486z M169.209,42.042l-2.047-1.118l2.047,1.521l1.859-3.806c-0.051-0.032-0.104-0.071-0.146-0.111
		L169.209,42.042z M166.122,40.152l0.048,0.034c0-0.003,0-0.005,0.001-0.009l-0.022-0.011L166.122,40.152z M172.197,38.644
		c-0.051,0.031-0.102,0.061-0.157,0.081l1.819,3.721l2.125-1.562l-2.125,1.161L172.197,38.644z M177.01,40.115L177.01,40.115
		c0,0.004,0.002,0.006,0.002,0.009l0.053-0.038L177.01,40.115z"/>
	<ellipse fill="#FCEE21" fill-opacity="0.5" cx="165.188" cy="39.664" rx="0.688" ry="0.657"/>
	<ellipse fill="#FCEE21" fill-opacity="0.5" cx="177.881" cy="39.664" rx="0.684" ry="0.657"/>
	<ellipse fill="#FCEE21" cx="171.691" cy="37.032" rx="0.681" ry="0.657"/>
	<polygon fill="#FCEE21" fill-opacity="0.4" points="171.997,47.912 171.068,38.638 170.917,38.547 169.209,42.042 168.963,41.908 
		170.822,47.912 	"/>
</g>
<g>
	<path fill-opacity="0.3" d="M206.504,46.301c0,0-1.818-3.102-7.302-3.159c0,0,0-0.001,0-0.002v0.001V43.14c0,0.001,0,0.002,0,0.002
		c-5.481,0.059-7.282,3.159-7.282,3.159s-0.271-0.863,0.309,4.165c0.528,4.586,6.086,7.377,6.979,7.833c0,0.045,0,0.068,0,0.068
		s-0.049-0.015,0-0.032c0.048,0.021,0,0.032,0,0.032s0-0.023,0-0.066c0.896-0.456,6.479-3.249,7.013-7.835
		C206.794,45.438,206.504,46.301,206.504,46.301z"/>
	<g>
		<g>
			<path fill="#788C8F" d="M205.831,44.457c0,0-1.843-3.489-6.688-3.55c0-0.002,0-0.002,0-0.007v0.005v-0.005
				c0,0.005,0,0.005,0,0.007c-4.848,0.062-6.604,3.55-6.604,3.55s-0.271-0.974,0.264,4.682c0.479,5.152,5.538,8.291,6.354,8.804
				c0,0.054,0,0.076,0,0.076s-0.041-0.014,0-0.037c0.043,0.023,0,0.037,0,0.037s0-0.022,0-0.076c0.809-0.51,5.928-3.646,6.411-8.804
				C206.082,43.487,205.831,44.457,205.831,44.457z"/>
			
				<radialGradient id="SVGID_4_" cx="-760.6587" cy="3719.3215" r="18.5475" gradientTransform="matrix(0.8078 0 0 0.8806 813.3273 -3233.2029)" gradientUnits="userSpaceOnUse">
				<stop  offset="0" style="stop-color:#FFFFFF;stop-opacity:0.43"/>
				<stop  offset="1" style="stop-color:#231F20;stop-opacity:0"/>
			</radialGradient>
			<path fill="url(#SVGID_4_)" d="M205.831,44.457c0,0-1.843-3.489-6.688-3.55c0-0.002,0-0.002,0-0.007v0.005v-0.005
				c0,0.005,0,0.005,0,0.007c-4.848,0.062-6.604,3.55-6.604,3.55s-0.271-0.974,0.264,4.682c0.479,5.152,5.538,8.291,6.354,8.804
				c0,0.054,0,0.076,0,0.076s-0.041-0.014,0-0.037c0.043,0.023,0,0.037,0,0.037s0-0.022,0-0.076c0.809-0.51,5.928-3.646,6.411-8.804
				C206.082,43.487,205.831,44.457,205.831,44.457z"/>
		</g>
		<path fill="#76898C" d="M205.1,45.007c0,0-0.303-3.102-5.957-3.158c0,0,0-0.001,0-0.002v0.001v-0.001c0,0.001,0,0.002,0,0.002
			c-4.039,0.059-5.877,3.158-5.877,3.158s-0.229-0.862,0.232,4.167c0.43,4.584,5.645,7.377,5.645,7.835c0,0.043,0,0.066,0,0.066
			s-0.039-0.014,0-0.032c0.039,0.021,0,0.032,0,0.032s0-0.023,0-0.066c0.812-0.456,5.277-3.249,5.705-7.835
			C205.316,44.146,205.1,45.007,205.1,45.007z"/>
		<g>
			<path fill="#FFFFFF" d="M199.143,40.902v0.002V40.902z"/>
			<path fill="#FFFFFF" d="M192.561,44.779c0,0,1.606-3.484,6.646-3.551c5.036,0.064,6.66,3.551,6.66,3.551s0.051-0.186,0.062,0.083
				c0.021-0.701-0.062-0.402-0.062-0.402s-1.624-3.489-6.66-3.55c-5.035,0.061-6.646,3.55-6.646,3.55s-0.074-0.289-0.054,0.369
				C192.518,44.61,192.561,44.779,192.561,44.779z M199.202,41.226C199.202,41.226,199.227,41.227,199.202,41.226
				C199.182,41.227,199.202,41.226,199.202,41.226z"/>
		</g>
		
			<radialGradient id="SVGID_5_" cx="-763.7866" cy="3720.5471" r="14.353" gradientTransform="matrix(0.8078 0 0 0.8806 813.3273 -3233.2029)" gradientUnits="userSpaceOnUse">
			<stop  offset="0" style="stop-color:#FFFFFF"/>
			<stop  offset="1" style="stop-color:#FFFFFF;stop-opacity:0"/>
		</radialGradient>
		<path fill="url(#SVGID_5_)" d="M199.424,42.224c-0.26-0.028-0.527-0.048-0.812-0.051c-4.438,0.056-5.021,3.479-5.021,3.479
			s-0.221-1.507,0.251,3.521c0.288,3.086,2.118,5.035,3.706,6.332c0.554-0.513,1.353,1.453,1.792,0.756L199.424,42.224z"/>
	</g>
</g>
<g>
	<path fill="#273B40" d="M81,81H64v-4h17V81z"/>
	<path fill="#273B40" d="M78,87H64v-4h14V87z"/>
	<path fill="#273B40" d="M74,89H64v4h10V89z"/>
</g>
<g>
	<g>
		<polygon fill="#FF0000" points="97.278,80.105 100.988,76.977 99.312,74.991 97.226,76.752 95.141,74.991 93.465,76.977 
			97.174,80.105 97.218,80.158 97.226,80.152 97.236,80.158 		"/>
		<polygon fill="#FF8282" points="95.141,75.727 97.226,77.486 99.312,75.727 100.626,77.282 100.988,76.977 99.312,74.991 
			97.226,76.752 95.141,74.991 93.465,76.977 93.827,77.282 		"/>
	</g>
	<rect x="89.875" y="78.154" fill="#4FCAFF" width="14.548" height="3.426"/>
	<rect x="89.875" y="78.154" fill="#94DFFF" width="14.548" height="0.854"/>
	<rect x="90.731" y="81.577" fill="#2390BF" width="12.836" height="9.414"/>
	<rect x="95.01" y="78.154" fill="#FF0000" width="3.423" height="12.84"/>
</g>
<g>
	<polyline fill="#7BB125" points="122.044,95.365 111.012,90.643 117.701,75.014 128.733,79.736 122.044,95.365 	"/>
	<polyline fill="#557A1A" points="127.159,83.414 116.128,78.691 117.701,75.014 128.733,79.736 127.159,83.414 	"/>
	<path fill="#557A1A" d="M121.942,87.979c-0.598,1.396-2.215,2.045-3.61,1.446c-1.396-0.598-2.044-2.214-1.446-3.61
		c0.598-1.396,2.214-2.043,3.61-1.439C121.892,84.968,122.54,86.583,121.942,87.979"/>
	<path fill="#3D5812" d="M119.413,89.646c-0.361,0-0.728-0.067-1.081-0.225c-1.396-0.598-2.044-2.214-1.446-3.607
		c0.447-1.043,1.462-1.668,2.529-1.668c0.361,0,0.728,0.069,1.081,0.226c1.396,0.598,2.044,2.214,1.446,3.606
		C121.496,89.021,120.48,89.646,119.413,89.646 M117.701,75.014l-6.689,15.629l11.032,4.729l6.689-15.635l-1.574,3.684
		l-11.031-4.729L117.701,75.014"/>
	<polyline fill="#2A3D0D" points="117.701,75.014 117.701,75.014 116.128,78.691 127.159,83.414 128.733,79.736 117.701,75.014 	"/>
	<path fill="#2A3D0D" d="M119.415,84.146c-1.067,0-2.083,0.625-2.529,1.668c-0.598,1.396,0.05,3.016,1.446,3.607
		c0.353,0.151,0.72,0.225,1.081,0.225c1.067,0,2.083-0.625,2.53-1.668c0.598-1.396-0.05-3.015-1.446-3.606
		C120.143,84.219,119.776,84.146,119.415,84.146"/>
	
		<rect x="117.892" y="74.678" transform="matrix(0.9193 0.3935 -0.3935 0.9193 42.7253 -42.0407)" fill="#7BB125" width="11.999" height="17.001"/>
	
		<rect x="120.42" y="75.221" transform="matrix(0.9193 0.3936 -0.3936 0.9193 40.6016 -43.5278)" fill="#557A1A" width="12" height="4.002"/>
	<circle fill="#557A1A" cx="123.414" cy="84.896" r="2.75"/>
</g>
<linearGradient id="SVGID_6_" gradientUnits="userSpaceOnUse" x1="95.2212" y1="20.844" x2="95.2212" y2="37.1775">
	<stop  offset="0" style="stop-color:#35E6CD"/>
	<stop  offset="1" style="stop-color:#0098CB"/>
</linearGradient>
<polygon fill="url(#SVGID_6_)" points="97.771,34.515 92.671,29.183 97.771,23.851 "/>
<linearGradient id="SVGID_7_" gradientUnits="userSpaceOnUse" x1="52.0005" y1="0.844" x2="52.0005" y2="23.511">
	<stop  offset="0" style="stop-color:#35E6CD"/>
	<stop  offset="1" style="stop-color:#0098CB"/>
</linearGradient>
<path fill="url(#SVGID_7_)" d="M60.25,17.992c-1.161-0.663-5.068-0.114-5.482-2.104c-0.414-1.991,1.428-3.332,1.594-4.328
	C56.526,10.566,57.08,4,51.984,4c-5.098,0-4.526,6.563-4.36,7.561c0.165,0.996,2.024,2.337,1.61,4.328
	c-0.415,1.989-4.322,1.439-5.482,2.104c-1.162,0.663-1.928,2.921-1.928,2.921h20.353C62.176,20.913,61.412,18.656,60.25,17.992z"/>
<g id="token_x5F_icon_1_">
	<g>
		<g>
			<circle fill="#D4BB25" cx="95.01" cy="10.101" r="7.83"/>
		</g>
	</g>
	<g>
		<g>
			<path fill="#FFFFFF" d="M97.799,7.567c0.062,0.288,0.097,0.571,0.097,0.851c0,0.276-0.033,0.56-0.097,0.848l-1.92-0.032v3.824
				c0,0.501,0.233,0.752,0.703,0.752h0.928c0.129,0.384,0.192,0.729,0.192,1.024s-0.021,0.512-0.063,0.64
				c-0.769,0.106-1.473,0.16-2.112,0.16c-1.312,0-1.968-0.714-1.968-2.146V9.247l-1.247,0.016c-0.064-0.234-0.097-0.517-0.097-0.848
				c0-0.33,0.031-0.613,0.097-0.851l1.247,0.019V6.607c0-0.53,0.097-0.904,0.287-1.12c0.192-0.213,0.523-0.317,0.992-0.317h0.928
				l0.113,0.109v2.32L97.799,7.567z"/>
		</g>
	</g>
</g>
<g id="karmaicon">
	<g>
		<g>
			<circle fill="#55830B" cx="727.83" cy="38.17" r="7.83"/>
		</g>
	</g>
	<g>
		<g>
			<path d="M727.58,40.547l-0.461,0.015v2.813c-0.289,0.056-0.627,0.084-1.009,0.084c-0.384,0-0.729-0.028-1.036-0.084V33.169
				l0.098-0.101h0.812c0.41,0,0.702,0.099,0.875,0.287c0.172,0.191,0.26,0.519,0.26,0.976v4.508h0.252
				c0.168,0,0.299-0.084,0.392-0.252l0.801-1.47c0.253-0.516,0.645-0.771,1.178-0.771c0.271,0,0.657,0.009,1.161,0.028l0.084,0.109
				l-1.137,2.131c-0.178,0.324-0.408,0.588-0.697,0.781c0.56,0.206,0.956,0.612,1.188,1.221l0.354,1.032
				c0.146,0.401,0.268,0.68,0.354,0.826c0.089,0.149,0.193,0.27,0.315,0.354c-0.374,0.438-0.841,0.654-1.399,0.654
				c-0.299,0-0.523-0.066-0.68-0.21c-0.154-0.14-0.291-0.387-0.412-0.738l-0.42-1.232c-0.113-0.299-0.231-0.499-0.357-0.602
				C727.966,40.598,727.795,40.547,727.58,40.547z"/>
		</g>
		<g>
			<path fill="#FFFFFF" d="M727.58,40.547l-0.461,0.015v2.813c-0.289,0.056-0.627,0.084-1.009,0.084
				c-0.384,0-0.729-0.028-1.036-0.084V33.169l0.098-0.101h0.812c0.41,0,0.702,0.099,0.875,0.287c0.172,0.191,0.26,0.519,0.26,0.976
				v4.508h0.252c0.168,0,0.299-0.084,0.392-0.252l0.801-1.47c0.253-0.516,0.645-0.771,1.178-0.771c0.271,0,0.657,0.009,1.161,0.028
				l0.084,0.109l-1.137,2.131c-0.178,0.324-0.408,0.588-0.697,0.781c0.56,0.206,0.956,0.612,1.188,1.221l0.354,1.032
				c0.146,0.401,0.268,0.68,0.354,0.826c0.089,0.149,0.193,0.27,0.315,0.354c-0.374,0.438-0.841,0.654-1.399,0.654
				c-0.299,0-0.523-0.066-0.68-0.21c-0.154-0.14-0.291-0.387-0.412-0.738l-0.42-1.232c-0.113-0.299-0.231-0.499-0.357-0.602
				C727.966,40.598,727.795,40.547,727.58,40.547z"/>
		</g>
	</g>
</g>
<g id="karmaicon_1_">
	<g>
		<g>
			<circle fill="#55830B" cx="74" cy="12.457" r="7.83"/>
		</g>
	</g>
	<g>
		<g>
			<path d="M73.75,14.833l-0.461,0.015v2.813c-0.289,0.056-0.627,0.084-1.009,0.084c-0.383,0-0.729-0.028-1.036-0.084V7.456
				l0.098-0.101h0.812c0.41,0,0.702,0.099,0.875,0.287c0.172,0.191,0.26,0.519,0.26,0.976v4.508h0.252
				c0.168,0,0.299-0.084,0.392-0.252l0.798-1.473c0.253-0.513,0.645-0.77,1.178-0.77c0.271,0,0.657,0.009,1.161,0.028l0.084,0.109
				l-1.135,2.13c-0.177,0.327-0.41,0.591-0.699,0.784c0.56,0.206,0.956,0.612,1.188,1.218l0.352,1.035
				c0.148,0.401,0.268,0.68,0.355,0.826c0.089,0.149,0.193,0.27,0.315,0.354c-0.374,0.438-0.84,0.654-1.399,0.654
				c-0.299,0-0.525-0.066-0.68-0.21c-0.154-0.14-0.291-0.387-0.412-0.74l-0.42-1.23c-0.113-0.299-0.231-0.499-0.357-0.604
				C74.136,14.885,73.965,14.833,73.75,14.833z"/>
		</g>
		<g>
			<path fill="#FFFFFF" d="M73.75,14.833l-0.461,0.015v2.813c-0.289,0.056-0.627,0.084-1.009,0.084
				c-0.383,0-0.729-0.028-1.036-0.084V7.456l0.098-0.101h0.812c0.41,0,0.702,0.099,0.875,0.287c0.172,0.191,0.26,0.519,0.26,0.976
				v4.508h0.252c0.168,0,0.299-0.084,0.392-0.252l0.798-1.473c0.253-0.513,0.645-0.77,1.178-0.77c0.271,0,0.657,0.009,1.161,0.028
				l0.084,0.109l-1.135,2.13c-0.177,0.327-0.41,0.591-0.699,0.784c0.56,0.206,0.956,0.612,1.188,1.218l0.352,1.035
				c0.148,0.401,0.268,0.68,0.355,0.826c0.089,0.149,0.193,0.27,0.315,0.354c-0.374,0.438-0.84,0.654-1.399,0.654
				c-0.299,0-0.525-0.066-0.68-0.21c-0.154-0.14-0.291-0.387-0.412-0.74l-0.42-1.23c-0.113-0.299-0.231-0.499-0.357-0.604
				C74.136,14.885,73.965,14.833,73.75,14.833z"/>
		</g>
	</g>
</g>
<path opacity="0.2" fill="#151000" d="M159.938,94.52c0,1.75-1.418,3.168-3.168,3.168h-13.664c-1.75,0-3.168-1.418-3.168-3.168
	V80.855c0-1.75,1.418-3.168,3.168-3.168h13.664c1.75,0,3.168,1.418,3.168,3.168V94.52z"/>
<linearGradient id="SVGID_8_" gradientUnits="userSpaceOnUse" x1="149.938" y1="76.1775" x2="149.938" y2="97.8466">
	<stop  offset="0" style="stop-color:#19BDCC"/>
	<stop  offset="1" style="stop-color:#0098CB"/>
</linearGradient>
<path fill="url(#SVGID_8_)" d="M159.938,93.52c0,1.75-1.418,3.168-3.168,3.168h-13.664c-1.75,0-3.168-1.418-3.168-3.168V79.855
	c0-1.75,1.418-3.168,3.168-3.168h13.664c1.75,0,3.168,1.418,3.168,3.168V93.52z"/>
<polygon opacity="0.2" fill="#123F00" points="154.938,84.688 150.938,84.688 150.938,80.688 148.938,80.688 148.938,84.688 
	144.938,84.688 144.938,86.688 148.938,86.688 148.938,90.688 150.938,90.688 150.938,86.688 154.938,86.688 "/>
<polygon fill="#E8F0F1" points="154.938,85.688 150.938,85.688 150.938,81.688 148.938,81.688 148.938,85.688 144.938,85.688 
	144.938,87.688 148.938,87.688 148.938,91.688 150.938,91.688 150.938,87.688 154.938,87.688 "/>
<path fill="#273B40" d="M186.759,84.688c-0.145-4-3.598-7.797-7.849-7.797c-4.342,0-7.713,3.416-7.713,7.758
	c0,4.25,2.74,7.604,7.74,7.744v-3.252c-2-0.142-4.487-2.146-4.487-4.596c0-2.542,1.993-4.402,4.534-4.402
	c2.449,0,4.38,2.545,4.521,4.545h-3.401l4.688,8.12l4.688-8.12H186.759L186.759,84.688z"/>
<path opacity="0.4" d="M34.442,167.447H16.596l20.098-22.106c1.929-2.089,2.732-3.62,2.732-5.949v-0.242
	c0-2.893-2.492-4.902-5.949-4.902H6.707c-2.732,0-4.982,2.25-4.982,4.984c0,2.731,2.25,4.903,4.982,4.903H23.75L3.733,166.241
	C1.804,168.329,1,169.859,1,172.19v0.24c0,2.896,2.492,4.903,5.948,4.903h27.494c2.733,0,4.983-2.17,4.983-4.903
	C39.426,169.698,37.176,167.447,34.442,167.447z M61.852,133.442c-13.425,0-23.393,10.05-23.393,22.429v0.159
	c0,12.381,9.887,22.271,23.232,22.271c13.425,0,23.393-10.049,23.393-22.43v-0.162C85.084,143.33,75.197,133.442,61.852,133.442z
	 M73.025,156.03c0,6.352-4.18,11.738-11.174,11.738c-6.752,0-11.336-5.547-11.336-11.897v-0.162c0-6.351,4.181-11.736,11.176-11.736
	c6.752,0,11.334,5.548,11.334,11.898V156.03z M113.135,133.442c-6.351,0-10.451,2.974-13.425,6.993v-16.159
	c0-3.376-2.734-6.108-6.11-6.108s-6.109,2.732-6.109,6.108v47.434c0,3.373,2.733,6.106,6.109,6.106s6.11-2.733,6.11-6.027v-0.079
	c2.894,3.454,6.913,6.428,13.425,6.428c10.21,0,19.613-7.878,19.613-22.267v-0.162C132.749,141.32,123.184,133.442,113.135,133.442z
	 M120.53,155.87c0,7.235-4.824,11.897-10.531,11.897c-5.708,0-10.451-4.741-10.451-11.897v-0.162
	c0-7.154,4.742-11.896,10.451-11.896c5.707,0,10.531,4.741,10.531,11.896V155.87z M156.412,133.442
	c-12.542,0-21.303,10.131-21.303,22.429v0.159c0,13.185,9.565,22.271,22.508,22.271c6.27,0,11.175-2.012,14.953-5.228
	c0.883-0.802,1.607-2.008,1.607-3.617c0-2.733-2.011-4.824-4.743-4.824c-1.287,0-2.09,0.323-2.975,0.966
	c-2.492,1.85-5.305,2.895-8.682,2.895c-5.466,0-9.326-2.895-10.532-8.441h24.198c3.215,0,5.706-2.331,5.706-5.868
	C177.15,145.261,170.803,133.442,156.412,133.442z M147.086,152.414c0.964-5.547,4.261-9.163,9.326-9.163
	c5.144,0,8.36,3.696,9.083,9.163H147.086z M192.732,103.564c-11.548,0-20.909,8.093-20.909,18.074
	c0,8.107,6.175,14.966,14.682,17.259c7.071,3.31,0,12.267,0,12.267c8.712-2.91,22.171-17.84,22.184-17.853
	c3.087-3.148,4.952-7.223,4.952-11.673C213.641,111.656,204.28,103.564,192.732,103.564z"/>
<g>
	<g>
		<linearGradient id="SVGID_9_" gradientUnits="userSpaceOnUse" x1="20.2129" y1="117.2463" x2="20.2129" y2="180.4129">
			<stop  offset="0" style="stop-color:#35E6CD"/>
			<stop  offset="1" style="stop-color:#0098CB"/>
		</linearGradient>
		<path fill="url(#SVGID_9_)" d="M1,171.43v-0.24c0-2.331,0.804-3.86,2.733-5.948l20.018-22.107H6.707
			c-2.732,0-4.982-2.172-4.982-4.903c0-2.734,2.25-4.984,4.982-4.984h26.771c3.457,0,5.949,2.01,5.949,4.902v0.242
			c0,2.329-0.803,3.86-2.732,5.949l-20.098,22.106h17.847c2.733,0,4.983,2.251,4.983,4.983c0,2.733-2.25,4.903-4.983,4.903H6.948
			C3.492,176.333,1,174.325,1,171.43z"/>
		<linearGradient id="SVGID_10_" gradientUnits="userSpaceOnUse" x1="61.771" y1="117.2444" x2="61.771" y2="180.4159">
			<stop  offset="0" style="stop-color:#35E6CD"/>
			<stop  offset="1" style="stop-color:#0098CB"/>
		</linearGradient>
		<path fill="url(#SVGID_10_)" d="M38.458,155.03v-0.159c0-12.379,9.968-22.429,23.393-22.429c13.345,0,23.232,9.889,23.232,22.267
			v0.162c0,12.381-9.968,22.43-23.393,22.43C48.346,177.3,38.458,167.41,38.458,155.03z M73.025,155.03v-0.159
			c0-6.351-4.583-11.898-11.334-11.898c-6.995,0-11.176,5.386-11.176,11.736v0.162c0,6.351,4.584,11.897,11.336,11.897
			C68.846,166.768,73.025,161.381,73.025,155.03z"/>
		<linearGradient id="SVGID_11_" gradientUnits="userSpaceOnUse" x1="110.1196" y1="117.2434" x2="110.1196" y2="180.4136">
			<stop  offset="0" style="stop-color:#35E6CD"/>
			<stop  offset="1" style="stop-color:#0098CB"/>
		</linearGradient>
		<path fill="url(#SVGID_11_)" d="M87.49,123.276c0-3.376,2.733-6.108,6.109-6.108s6.11,2.732,6.11,6.108v16.159
			c2.975-4.02,7.074-6.993,13.425-6.993c10.048,0,19.613,7.878,19.613,22.267v0.162c0,14.389-9.403,22.267-19.613,22.267
			c-6.513,0-10.531-2.974-13.425-6.428v0.079c0,3.294-2.734,6.027-6.11,6.027s-6.109-2.733-6.109-6.106V123.276z M120.53,154.87
			v-0.162c0-7.154-4.824-11.896-10.531-11.896c-5.708,0-10.451,4.741-10.451,11.896v0.162c0,7.156,4.742,11.897,10.451,11.897
			C115.706,166.768,120.53,162.106,120.53,154.87z"/>
		<linearGradient id="SVGID_12_" gradientUnits="userSpaceOnUse" x1="156.1294" y1="117.2444" x2="156.1294" y2="180.4159">
			<stop  offset="0" style="stop-color:#35E6CD"/>
			<stop  offset="1" style="stop-color:#0098CB"/>
		</linearGradient>
		<path fill="url(#SVGID_12_)" d="M157.617,177.3c-12.943,0-22.508-9.086-22.508-22.271v-0.159c0-12.298,8.761-22.429,21.303-22.429
			c14.391,0,20.738,11.819,20.738,20.74c0,3.537-2.491,5.868-5.706,5.868h-24.198c1.206,5.547,5.065,8.441,10.532,8.441
			c3.377,0,6.19-1.045,8.682-2.895c0.885-0.643,1.688-0.966,2.975-0.966c2.732,0,4.743,2.091,4.743,4.824
			c0,1.609-0.725,2.815-1.607,3.617C168.792,175.288,163.887,177.3,157.617,177.3z M165.495,151.414
			c-0.723-5.467-3.939-9.163-9.083-9.163c-5.065,0-8.362,3.616-9.326,9.163H165.495z"/>
	</g>
	<path fill="#F7FFCC" d="M191.577,144.892c0.317-1.335,0.417-2.748,0.094-4.119c-0.354-1.491-1.374-3.556-4.225-4.892l-0.177-0.082
		l-0.188-0.051c-7.795-2.101-13.034-8.174-13.034-15.11c0-8.739,8.382-15.85,18.685-15.85c10.301,0,18.684,7.111,18.684,15.85
		c0,3.684-1.533,7.277-4.315,10.115l-0.047,0.049C203.71,134.5,197.29,140.897,191.577,144.892z"/>
	<linearGradient id="SVGID_13_" gradientUnits="userSpaceOnUse" x1="192.7324" y1="102.5637" x2="192.7324" y2="183.1028">
		<stop  offset="0" style="stop-color:#35E6CD"/>
		<stop  offset="1" style="stop-color:#0098CB"/>
	</linearGradient>
	<path fill="url(#SVGID_13_)" d="M192.732,107.012c9.074,0,16.46,6.112,16.46,13.626c0,3.971-2.002,6.847-3.681,8.56l-0.047,0.045
		l-0.043,0.049l-0.02,0.021l-0.016,0.017c-2.913,3.222-7.284,7.552-11.529,11.03c-0.008-0.032-0.015-0.064-0.022-0.098
		c-0.467-1.973-1.791-4.682-5.444-6.395l-0.354-0.167l-0.377-0.1c-6.812-1.835-11.388-7.046-11.388-12.963
		C176.272,113.124,183.656,107.012,192.732,107.012 M192.732,102.564c-11.548,0-20.909,8.092-20.909,18.074
		c0,8.107,6.175,14.966,14.682,17.259c7.071,3.31,0,12.267,0,12.267c8.712-2.91,22.171-17.84,22.184-17.853
		c3.087-3.148,4.952-7.223,4.952-11.673C213.641,110.656,204.28,102.564,192.732,102.564L192.732,102.564z"/>
</g>
<g>
	<g>
		<linearGradient id="SVGID_14_" gradientUnits="userSpaceOnUse" x1="117.1763" y1="5.4846" x2="117.1763" y2="29.0778">
			<stop  offset="0" style="stop-color:#35E6CD"/>
			<stop  offset="1" style="stop-color:#0098CB"/>
		</linearGradient>
		<path fill="url(#SVGID_14_)" d="M110,25.723v-0.089c0-0.872,0.301-1.442,1.021-2.222l7.477-8.258h-6.366
			c-1.021,0-1.861-0.812-1.861-1.831c0-1.021,0.84-1.862,1.861-1.862h9.999c1.292,0,2.222,0.75,2.222,1.831v0.091
			c0,0.87-0.3,1.442-1.021,2.222l-7.507,8.257h6.666c1.021,0,1.861,0.841,1.861,1.861s-0.841,1.831-1.861,1.831h-10.27
			C110.931,27.554,110,26.804,110,25.723z"/>
		<linearGradient id="SVGID_15_" gradientUnits="userSpaceOnUse" x1="132.6987" y1="5.4832" x2="132.6987" y2="29.0788">
			<stop  offset="0" style="stop-color:#35E6CD"/>
			<stop  offset="1" style="stop-color:#0098CB"/>
		</linearGradient>
		<path fill="url(#SVGID_15_)" d="M123.991,19.597v-0.06c0-4.624,3.724-8.377,8.738-8.377c4.985,0,8.678,3.693,8.678,8.317v0.06
			c0,4.624-3.723,8.378-8.737,8.378C127.684,27.915,123.991,24.221,123.991,19.597z M136.902,19.597v-0.06
			c0-2.372-1.711-4.444-4.233-4.444c-2.612,0-4.174,2.011-4.174,4.384v0.06c0,2.372,1.712,4.444,4.234,4.444
			C135.342,23.982,136.902,21.969,136.902,19.597z"/>
		<linearGradient id="SVGID_16_" gradientUnits="userSpaceOnUse" x1="150.7573" y1="5.4832" x2="150.7573" y2="29.078">
			<stop  offset="0" style="stop-color:#35E6CD"/>
			<stop  offset="1" style="stop-color:#0098CB"/>
		</linearGradient>
		<path fill="url(#SVGID_16_)" d="M142.305,7.736c0-1.261,1.021-2.281,2.281-2.281c1.263,0,2.284,1.021,2.284,2.281v6.036
			c1.11-1.501,2.642-2.612,5.014-2.612c3.753,0,7.326,2.942,7.326,8.317v0.06c0,5.375-3.513,8.317-7.326,8.317
			c-2.432,0-3.934-1.111-5.014-2.401v0.029c0,1.23-1.021,2.252-2.284,2.252c-1.26,0-2.281-1.021-2.281-2.281V7.736z M154.646,19.537
			v-0.06c0-2.673-1.803-4.443-3.935-4.443c-2.131,0-3.902,1.771-3.902,4.443v0.06c0,2.673,1.771,4.444,3.902,4.444
			C152.844,23.982,154.646,22.24,154.646,19.537z"/>
		<linearGradient id="SVGID_17_" gradientUnits="userSpaceOnUse" x1="167.9434" y1="5.4832" x2="167.9434" y2="29.0788">
			<stop  offset="0" style="stop-color:#35E6CD"/>
			<stop  offset="1" style="stop-color:#0098CB"/>
		</linearGradient>
		<path fill="url(#SVGID_17_)" d="M168.498,27.915c-4.835,0-8.407-3.394-8.407-8.318v-0.06c0-4.594,3.273-8.377,7.958-8.377
			c5.375,0,7.746,4.415,7.746,7.747c0,1.32-0.931,2.191-2.131,2.191h-9.039c0.45,2.072,1.892,3.153,3.934,3.153
			c1.262,0,2.312-0.39,3.242-1.081c0.332-0.24,0.631-0.36,1.111-0.36c1.021,0,1.772,0.781,1.772,1.802
			c0,0.601-0.271,1.051-0.6,1.352C172.673,27.164,170.84,27.915,168.498,27.915z M171.441,18.246
			c-0.27-2.042-1.471-3.422-3.393-3.422c-1.893,0-3.124,1.351-3.483,3.422H171.441z"/>
	</g>
	<path fill="#F7FFCC" d="M181.184,15.811c0.118-0.5,0.154-1.027,0.035-1.539c-0.133-0.558-0.515-1.329-1.578-1.828l-0.066-0.031
		l-0.07-0.019c-2.912-0.784-4.868-3.053-4.868-5.644c0-3.264,3.131-5.92,6.979-5.92c3.849,0,6.979,2.656,6.979,5.92
		c0,1.375-0.572,2.718-1.612,3.778l-0.019,0.018C185.715,11.929,183.317,14.318,181.184,15.811z"/>
	<linearGradient id="SVGID_18_" gradientUnits="userSpaceOnUse" x1="181.6152" y1="2.441406e-04" x2="181.6152" y2="30.0827">
		<stop  offset="0" style="stop-color:#35E6CD"/>
		<stop  offset="1" style="stop-color:#0098CB"/>
	</linearGradient>
	<path fill="url(#SVGID_18_)" d="M181.614,1.661c3.39,0,6.148,2.283,6.148,5.09c0,1.483-0.747,2.557-1.376,3.198l-0.017,0.017
		l-0.017,0.018l-0.007,0.008l-0.005,0.006c-1.089,1.203-2.722,2.82-4.308,4.12c-0.003-0.012-0.005-0.023-0.007-0.037
		c-0.175-0.737-0.67-1.748-2.033-2.388l-0.133-0.062l-0.142-0.037c-2.544-0.686-4.254-2.632-4.254-4.842
		C175.466,3.945,178.225,1.661,181.614,1.661 M181.614,0c-4.312,0-7.809,3.022-7.809,6.751c0,3.028,2.305,5.589,5.483,6.447
		c2.64,1.236,0,4.582,0,4.582c3.253-1.087,8.28-6.664,8.285-6.668c1.153-1.176,1.85-2.698,1.85-4.36
		C189.424,3.023,185.928,0,181.614,0L181.614,0z"/>
</g>
</svg>
